<svg width="58" height="54" viewBox="0 0 58 54" fill="none" xmlns="http://www.w3.org/2000/svg">
<path d="M14.3145 53.281H10.3014C10.0004 53.281 9.75586 53.0375 9.75586 52.7395V19.6938C9.75586 19.3939 10.0004 19.1523 10.3014 19.1523H14.3145C14.6156 19.1523 14.8601 19.3959 14.8601 19.6938V52.7375C14.8601 53.0375 14.6156 53.279 14.3145 53.279V53.281ZM10.847 52.196H13.7689V20.2374H10.847V52.196Z" fill="#414042"/>
<path d="M14.3144 53.3808H10.3014C9.94576 53.3808 9.65479 53.0929 9.65479 52.7386V19.6929C9.65479 19.3386 9.94374 19.0508 10.3014 19.0508H14.3144C14.6701 19.0508 14.9611 19.3386 14.9611 19.6929V52.7366C14.9611 53.0909 14.6721 53.3788 14.3144 53.3788V53.3808ZM10.3014 19.2521C10.0569 19.2521 9.85685 19.4494 9.85685 19.6929V52.7366C9.85685 52.9802 10.0569 53.1775 10.3014 53.1775H14.3144C14.5589 53.1775 14.759 52.9802 14.759 52.7366V19.6929C14.759 19.4494 14.5589 19.2521 14.3144 19.2521H10.3014ZM13.8699 52.2958H10.7459V20.1358H13.8699V52.2958ZM10.948 52.0945H13.6678V20.3371H10.948V52.0945Z" fill="white"/>
<path d="M49.8498 53.8513H3.3947C3.09362 53.8513 2.84912 53.6077 2.84912 53.3078V19.8091C2.84912 19.5092 3.09362 19.2656 3.3947 19.2656C3.69578 19.2656 3.94028 19.5092 3.94028 19.8091V52.7643H49.3063V19.9219C49.3063 19.6219 49.5508 19.3784 49.8519 19.3784C50.1529 19.3784 50.3974 19.6219 50.3974 19.9219V53.3078C50.3974 53.6077 50.1529 53.8513 49.8519 53.8513H49.8498Z" fill="#414042"/>
<path d="M49.8498 53.951H3.39466C3.03902 53.951 2.74805 53.6632 2.74805 53.3069V19.8082C2.74805 19.4539 3.037 19.1641 3.39466 19.1641C3.75232 19.1641 4.04127 19.4519 4.04127 19.8082V52.6627H49.2052V19.921C49.2052 19.5667 49.4942 19.2768 49.8518 19.2768C50.2095 19.2768 50.4984 19.5647 50.4984 19.921V53.3069C50.4984 53.6611 50.2095 53.951 49.8518 53.951H49.8498ZM3.39466 19.3674C3.15016 19.3674 2.95011 19.5667 2.95011 19.8102V53.3089C2.95011 53.5524 3.15016 53.7517 3.39466 53.7517H49.8498C50.0943 53.7517 50.2943 53.5524 50.2943 53.3089V19.921C50.2943 19.6774 50.0943 19.4781 49.8498 19.4781C49.6053 19.4781 49.4052 19.6774 49.4052 19.921V52.864H3.83719V19.8082C3.83719 19.5647 3.63714 19.3654 3.39264 19.3654L3.39466 19.3674Z" fill="white"/>
<path d="M53.4527 26.6786L49.8377 23.3672L50.0236 32.0674H27.6912V27.9086L19.8571 32.4157L12.0229 36.9228L19.8571 41.43L27.6912 45.9371V42.8069H48.6374C50.3671 42.8069 52.0382 42.1748 53.3314 41.0294C57.6274 37.2248 57.684 30.5577 53.4527 26.6826V26.6786Z" fill="#FDBC14"/>
<path d="M27.6914 46.3193C27.5965 46.3193 27.5035 46.2951 27.4187 46.2468L11.7484 37.2345C11.5807 37.1379 11.4756 36.9588 11.4756 36.7655C11.4756 36.5723 11.5786 36.3931 11.7484 36.2965L27.4187 27.2842C27.5864 27.1876 27.7945 27.1876 27.9642 27.2842C28.1319 27.3808 28.237 27.56 28.237 27.7532V31.3686H49.4682L49.2944 23.2219C49.2904 23.0045 49.4156 22.8052 49.6157 22.7167C49.8157 22.6261 50.0481 22.6643 50.2098 22.8113L53.8247 26.1227C55.9545 28.0733 57.1629 30.8452 57.1386 33.7279C57.1144 36.6105 55.8595 39.3603 53.6974 41.2767C52.3032 42.5127 50.5068 43.1911 48.6397 43.1911H28.239V45.7778C28.239 45.971 28.136 46.1502 27.9662 46.2468C27.8814 46.2951 27.7884 46.3193 27.6935 46.3193H27.6914ZM13.1123 36.7635L27.1479 44.8357V42.6455C27.1479 42.3456 27.3924 42.102 27.6935 42.102H48.6397C50.238 42.102 51.7778 41.5182 52.972 40.4614C54.9038 38.7503 56.0252 36.2904 56.0475 33.7158C56.0697 31.1391 54.9907 28.6631 53.0872 26.9198L50.4118 24.47L50.5694 31.898C50.5735 32.043 50.5169 32.1839 50.4138 32.2886C50.3108 32.3932 50.1714 32.4516 50.0239 32.4516H27.6914C27.3904 32.4516 27.1459 32.208 27.1459 31.9081V28.6893L13.1103 36.7615L13.1123 36.7635Z" fill="#1B75BB"/>
<path d="M50.9653 1.00781H0.101074V19.6584H50.9653V1.00781Z" fill="#1B75BB"/>
<path d="M51.0663 19.7582H0V0.90625H51.0663V19.7582ZM0.202067 19.5569H50.8642V1.10755H0.202067V19.5569Z" fill="white"/>
<path d="M19.2041 19.6584H15.1911C14.89 19.6584 14.6455 19.4148 14.6455 19.1149V1.55133C14.6455 1.25139 14.89 1.00781 15.1911 1.00781H19.2041C19.5052 1.00781 19.7497 1.25139 19.7497 1.55133V19.1169C19.7497 19.4169 19.5052 19.6604 19.2041 19.6604V19.6584ZM15.7367 18.5734H18.6586V2.09283H15.7367V18.5734Z" fill="white"/>
</svg>
