<svg width="97" height="54" viewBox="0 0 97 54" fill="none" xmlns="http://www.w3.org/2000/svg">
<path d="M81.1604 27.2832H26.3657V32.9203H81.1604V27.2832Z" fill="#1B75BB"/>
<path d="M77.1359 49.7425H69.6513C69.3732 49.7425 69.1475 49.5168 69.1475 49.2386C69.1475 48.9605 69.3732 48.7348 69.6513 48.7348H77.1359C79.3265 48.7348 81.108 46.9532 81.108 44.7624V18.5117C81.108 18.2335 81.3337 18.0078 81.6118 18.0078C81.8899 18.0078 82.1156 18.2335 82.1156 18.5117V44.7624C82.1156 47.5094 79.8827 49.7425 77.1359 49.7425Z" fill="#1B75BB"/>
<path d="M57.3296 49.7397H25.936V5.88438C25.936 3.13939 28.1689 0.904297 30.9157 0.904297H77.1355C79.8802 0.904297 82.1151 3.13737 82.1151 5.88438V13.7263C82.1151 14.0045 81.8894 14.2302 81.6113 14.2302C81.3332 14.2302 81.1075 14.0045 81.1075 13.7263V5.88438C81.1075 3.69363 79.326 1.912 77.1355 1.912H30.9157C28.7251 1.912 26.9437 3.69363 26.9437 5.88438V48.732H57.3296C57.6077 48.732 57.8334 48.9578 57.8334 49.2359C57.8334 49.514 57.6077 49.7397 57.3296 49.7397Z" fill="#1B75BB"/>
<path d="M26.4562 49.7405H22.071C21.7929 49.7405 21.5672 49.5148 21.5672 49.2367C21.5672 48.9585 21.7929 48.7328 22.071 48.7328H25.9504L25.7347 17.242H13.9758L1.00762 37.1865V45.0789C1.00762 47.0943 2.64804 48.7348 4.66329 48.7348H9.55228C9.83039 48.7348 10.0561 48.9606 10.0561 49.2387C10.0561 49.5168 9.83039 49.7425 9.55228 49.7425H4.66329C2.09183 49.7425 0 47.6505 0 45.0789V37.0374C0 36.9407 0.0282138 36.8439 0.0806103 36.7633L13.2785 16.4661C13.3712 16.323 13.5304 16.2363 13.7017 16.2363H26.2345C26.5106 16.2363 26.7363 16.46 26.7383 16.7362L26.96 49.2347C26.96 49.3697 26.9076 49.4987 26.8129 49.5934C26.7182 49.6881 26.5892 49.7425 26.4562 49.7425V49.7405Z" fill="#1B75BB"/>
<path d="M16.9621 33.1803H3.53653C3.25842 33.1803 3.03271 32.9544 3.03271 32.6761C3.03271 32.3978 3.25842 32.1719 3.53653 32.1719H16.9621C17.2402 32.1719 17.4659 32.3978 17.4659 32.6761C17.4659 32.9544 17.2402 33.1803 16.9621 33.1803Z" fill="#FDBC14"/>
<path d="M18.5203 37.8698H15.0702C14.7921 37.8698 14.5664 37.6439 14.5664 37.3656C14.5664 37.0872 14.7921 36.8613 15.0702 36.8613H18.5203C18.7984 36.8613 19.0241 37.0872 19.0241 37.3656C19.0241 37.6439 18.7984 37.8698 18.5203 37.8698Z" fill="#FDBC14"/>
<path d="M81.281 28.0553H26.4018C26.1237 28.0553 25.8979 27.8294 25.8979 27.5511C25.8979 27.2728 26.1237 27.0469 26.4018 27.0469H81.281C81.5591 27.0469 81.7848 27.2728 81.7848 27.5511C81.7848 27.8294 81.5591 28.0553 81.281 28.0553Z" fill="#1B75BB"/>
<path d="M81.281 33.3249H26.4018C26.1237 33.3249 25.8979 33.099 25.8979 32.8206C25.8979 32.5423 26.1237 32.3164 26.4018 32.3164H81.281C81.5591 32.3164 81.7848 32.5423 81.7848 32.8206C81.7848 33.099 81.5591 33.3249 81.281 33.3249Z" fill="#1B75BB"/>
<path d="M81.5287 37.5163H55.538C55.2599 37.5163 55.0342 37.2904 55.0342 37.012C55.0342 36.7337 55.2599 36.5078 55.538 36.5078H81.5287C81.8068 36.5078 82.0325 36.7337 82.0325 37.012C82.0325 37.2904 81.8068 37.5163 81.5287 37.5163Z" fill="#1B75BB"/>
<path d="M53.128 37.5577C53.4274 37.5577 53.6701 37.3148 53.6701 37.0152C53.6701 36.7156 53.4274 36.4727 53.128 36.4727C52.8286 36.4727 52.5859 36.7156 52.5859 37.0152C52.5859 37.3148 52.8286 37.5577 53.128 37.5577Z" fill="#1B75BB"/>
<path d="M50.7721 37.5577C51.0715 37.5577 51.3142 37.3148 51.3142 37.0152C51.3142 36.7156 51.0715 36.4727 50.7721 36.4727C50.4727 36.4727 50.23 36.7156 50.23 37.0152C50.23 37.3148 50.4727 37.5577 50.7721 37.5577Z" fill="#1B75BB"/>
<path d="M63.5673 53.7538C59.839 53.7538 56.8081 50.7206 56.8081 46.9941C56.8081 43.2676 59.8411 40.2344 63.5673 40.2344C67.2934 40.2344 70.3264 43.2676 70.3264 46.9941C70.3264 50.7206 67.2934 53.7538 63.5673 53.7538ZM63.5673 41.2401C60.3953 41.2401 57.8157 43.8198 57.8157 46.992C57.8157 50.1643 60.3953 52.744 63.5673 52.744C66.7393 52.744 69.3188 50.1643 69.3188 46.992C69.3188 43.8198 66.7393 41.2401 63.5673 41.2401Z" fill="#1B75BB"/>
<path d="M63.5672 49.9151C65.1821 49.9151 66.4913 48.6058 66.4913 46.9908C66.4913 45.3757 65.1821 44.0664 63.5672 44.0664C61.9522 44.0664 60.6431 45.3757 60.6431 46.9908C60.6431 48.6058 61.9522 49.9151 63.5672 49.9151Z" fill="#414042"/>
<path d="M63.5671 50.4209C61.6768 50.4209 60.1392 48.8831 60.1392 46.9927C60.1392 45.1022 61.6768 43.5645 63.5671 43.5645C65.4574 43.5645 66.995 45.1022 66.995 46.9927C66.995 48.8831 65.4574 50.4209 63.5671 50.4209ZM63.5671 44.5701C62.233 44.5701 61.1468 45.6565 61.1468 46.9907C61.1468 48.3249 62.233 49.4112 63.5671 49.4112C64.9012 49.4112 65.9874 48.3249 65.9874 46.9907C65.9874 45.6565 64.9012 44.5701 63.5671 44.5701Z" fill="#414042"/>
<path d="M15.8861 53.7538C12.1579 53.7538 9.12695 50.7206 9.12695 46.9941C9.12695 43.2676 12.1599 40.2344 15.8861 40.2344C19.6123 40.2344 22.6452 43.2676 22.6452 46.9941C22.6452 50.7206 19.6123 53.7538 15.8861 53.7538ZM15.8861 41.2401C12.7141 41.2401 10.1346 43.8198 10.1346 46.992C10.1346 50.1643 12.7141 52.744 15.8861 52.744C19.0581 52.744 21.6376 50.1643 21.6376 46.992C21.6376 43.8198 19.0581 41.2401 15.8861 41.2401Z" fill="#1B75BB"/>
<path d="M15.8865 49.9151C17.5015 49.9151 18.8107 48.6058 18.8107 46.9908C18.8107 45.3757 17.5015 44.0664 15.8865 44.0664C14.2716 44.0664 12.9624 45.3757 12.9624 46.9908C12.9624 48.6058 14.2716 49.9151 15.8865 49.9151Z" fill="#414042"/>
<path d="M15.8864 50.4209C13.9961 50.4209 12.4585 48.8831 12.4585 46.9927C12.4585 45.1022 13.9961 43.5645 15.8864 43.5645C17.7767 43.5645 19.3144 45.1022 19.3144 46.9927C19.3144 48.8831 17.7767 50.4209 15.8864 50.4209ZM15.8864 44.5701C14.5523 44.5701 13.4661 45.6565 13.4661 46.9907C13.4661 48.3249 14.5523 49.4112 15.8864 49.4112C17.2205 49.4112 18.3068 48.3249 18.3068 46.9907C18.3068 45.6565 17.2205 44.5701 15.8864 44.5701Z" fill="#414042"/>
<path d="M92.8528 14.2448H81.6098C81.3317 14.2448 81.106 14.0189 81.106 13.7406C81.106 13.4622 81.3317 13.2363 81.6098 13.2363H92.8528C93.1309 13.2363 93.3567 13.4622 93.3567 13.7406C93.3567 14.0189 93.1309 14.2448 92.8528 14.2448Z" fill="#1B75BB"/>
<path d="M89.0662 18.8092H81.6098C81.3317 18.8092 81.106 18.5833 81.106 18.305C81.106 18.0267 81.3317 17.8008 81.6098 17.8008H89.0662C89.3443 17.8008 89.57 18.0267 89.57 18.305C89.57 18.5833 89.3443 18.8092 89.0662 18.8092Z" fill="#1B75BB"/>
<path d="M96.4962 16.4909H77.6093C77.3312 16.4909 77.1055 16.265 77.1055 15.9866C77.1055 15.7083 77.3312 15.4824 77.6093 15.4824H96.4962C96.7743 15.4824 97 15.7083 97 15.9866C97 16.265 96.7743 16.4909 96.4962 16.4909Z" fill="#FDBC14"/>
</svg>
