<svg width="54" height="54" viewBox="0 0 54 54" fill="none" xmlns="http://www.w3.org/2000/svg">
<path d="M36.6633 32.6879C36.502 32.6879 36.3426 32.6171 36.2344 32.4815C36.0485 32.2467 36.0914 31.9087 36.3283 31.7246L39.0656 29.6036V25.6126C39.0656 25.3151 39.3086 25.0742 39.6089 25.0742C39.9092 25.0742 40.1523 25.3151 40.1523 25.6126V30.1278L36.9963 32.5726C36.8962 32.6495 36.7798 32.6859 36.6613 32.6859L36.6633 32.6879Z" fill="#414042"/>
<path d="M30.4887 27.8462C30.1884 27.8462 29.9453 27.6054 29.9453 27.3079V25.0169C29.9453 24.7194 30.1884 24.4785 30.4887 24.4785C30.7889 24.4785 31.032 24.7194 31.032 25.0169V27.3079C31.032 27.6054 30.7889 27.8462 30.4887 27.8462Z" fill="#414042"/>
<path d="M48.0678 11.3614C47.7675 11.3614 47.5244 11.1206 47.5244 10.8231C47.5244 9.46307 46.9382 8.03424 45.784 6.57302C43.4778 3.65666 39.9807 1.98496 36.1874 1.98496C32.3961 1.98496 28.897 3.65666 26.5908 6.57302C25.4366 8.03424 24.8504 9.46307 24.8504 10.8231C24.8504 11.1206 24.6073 11.3614 24.307 11.3614C24.0068 11.3614 23.7637 11.1206 23.7637 10.8231C23.7637 9.21616 24.4276 7.5647 25.7349 5.9092C28.2495 2.72974 32.0611 0.90625 36.1894 0.90625C40.3177 0.90625 44.1274 2.72974 46.642 5.90717C47.9513 7.56268 48.6132 9.21414 48.6132 10.8211C48.6132 11.1186 48.3701 11.3594 48.0698 11.3594L48.0678 11.3614Z" fill="#1B75BB"/>
<path d="M48.0108 9.27944C47.9087 9.27944 47.8086 9.28956 47.7085 9.29361V20.0524C47.8086 20.0584 47.9087 20.0665 48.0108 20.0665C51.0177 20.0665 53.4567 17.6521 53.4567 14.671C53.4567 11.6898 51.0197 9.27539 48.0108 9.27539V9.27944Z" fill="#1B75BB"/>
<path d="M48.0108 20.6081C47.9271 20.6081 47.8433 20.602 47.7596 20.5979L47.1631 20.5635V8.78476L47.7596 8.75035C47.8433 8.74428 47.925 8.74023 48.0108 8.74023C51.3139 8.74023 54 11.4016 54 14.6742C54 17.9467 51.3139 20.6081 48.0108 20.6081ZM48.2518 9.82502V19.5253C50.842 19.3998 52.9113 17.2728 52.9113 14.6742C52.9113 12.0755 50.842 9.94847 48.2518 9.82299V9.82502Z" fill="#1B75BB"/>
<path d="M24.2193 9.27944C24.3214 9.27944 24.4215 9.28956 24.5216 9.29361V20.0524C24.4215 20.0584 24.3214 20.0665 24.2193 20.0665C21.2124 20.0665 18.7734 17.6521 18.7734 14.671C18.7734 11.6919 21.2104 9.27539 24.2193 9.27539V9.27944Z" fill="#1B75BB"/>
<path d="M24.2192 20.6081C20.9161 20.6081 18.23 17.9467 18.23 14.6742C18.23 11.4016 20.9161 8.74023 24.2192 8.74023C24.3029 8.74023 24.3867 8.74631 24.4704 8.75035L25.0669 8.78476V20.5635L24.4704 20.5979C24.3867 20.604 24.305 20.6081 24.2192 20.6081ZM23.9782 9.82502C21.388 9.95049 19.3187 12.0776 19.3187 14.6762C19.3187 17.2748 21.388 19.4019 23.9782 19.5273V9.82704V9.82502Z" fill="#1B75BB"/>
<path d="M36.1591 26.4496C29.4366 26.4496 23.9683 21.0318 23.9683 14.3713C23.9683 7.71081 29.4366 2.29297 36.1591 2.29297C42.8817 2.29297 48.35 7.71081 48.35 14.3713C48.35 21.0318 42.8817 26.4496 36.1591 26.4496ZM36.1591 3.37168C30.0371 3.37168 25.057 8.30582 25.057 14.3713C25.057 20.4368 30.0371 25.3709 36.1591 25.3709C42.2811 25.3709 47.2612 20.4368 47.2612 14.3713C47.2612 8.30582 42.2811 3.37168 36.1591 3.37168Z" fill="#414042"/>
<path d="M44.2667 24.0005H39.8871C39.5868 24.0005 39.3438 23.7597 39.3438 23.4622C39.3438 23.1647 39.5868 22.9239 39.8871 22.9239H44.2667C45.8641 22.9239 47.1653 21.6347 47.1653 20.052C47.1653 19.7545 47.4083 19.5137 47.7086 19.5137C48.0089 19.5137 48.252 19.7545 48.252 20.052C48.252 22.2297 46.4646 24.0005 44.2667 24.0005Z" fill="#1B75BB"/>
<path d="M40.2017 22.0391H33.8938C33.4662 22.0391 33.1196 22.3825 33.1196 22.8061V23.7674C33.1196 24.191 33.4662 24.5345 33.8938 24.5345H40.2017C40.6293 24.5345 40.9759 24.191 40.9759 23.7674V22.8061C40.9759 22.3825 40.6293 22.0391 40.2017 22.0391Z" fill="#1B75BB"/>
<path d="M38.1364 53.8596H1.88041L0.0113316 30.7614C-0.0683339 29.7738 0.27484 28.7881 0.953018 28.0596C1.6312 27.331 2.59535 26.9141 3.59628 26.9141H32.6395C34.5004 26.9141 36.0753 28.353 36.2244 30.1927L38.1405 53.8616L38.1364 53.8596ZM2.88337 52.7829H36.9598L35.1397 30.2777C35.0355 28.9946 33.9366 27.9908 32.6395 27.9908H3.59424C2.88542 27.9908 2.23175 28.2741 1.75172 28.7902C1.27168 29.3062 1.03881 29.9761 1.09397 30.6744L2.88337 52.7808V52.7829Z" fill="#414042"/>
<path d="M18.8942 43.8599C21.0174 43.8599 22.7385 42.1547 22.7385 40.0511C22.7385 37.9475 21.0174 36.2422 18.8942 36.2422C16.771 36.2422 15.0498 37.9475 15.0498 40.0511C15.0498 42.1547 16.771 43.8599 18.8942 43.8599Z" fill="#FDBC14"/>
<path d="M18.8941 44.3996C16.4735 44.3996 14.5063 42.4486 14.5063 40.0524C14.5063 37.6561 16.4755 35.7031 18.8941 35.7031C21.3126 35.7031 23.2818 37.6541 23.2818 40.0524C23.2818 42.4506 21.3126 44.3996 18.8941 44.3996ZM18.8941 36.7798C17.074 36.7798 15.5931 38.2471 15.5931 40.0503C15.5931 41.8536 17.074 43.3209 18.8941 43.3209C20.7141 43.3209 22.1951 41.8536 22.1951 40.0503C22.1951 38.2471 20.7141 36.7798 18.8941 36.7798Z" fill="#FDBC14"/>
<path d="M44.7118 53.8575H37.2682L37.0986 49.8867H44.7118V53.8575ZM38.312 52.7808H43.6251V50.9634H38.2344L38.312 52.7808Z" fill="#414042"/>
<path d="M52.8214 53.8675H37.9403C37.6401 53.8675 37.397 53.6266 37.397 53.3291C37.397 53.0316 37.6401 52.7908 37.9403 52.7908H51.7327V36.003C51.7327 32.9126 49.1956 30.399 46.0764 30.399H39.7972C39.4969 30.399 39.2538 30.1581 39.2538 29.8606C39.2538 29.5631 39.4969 29.3223 39.7972 29.3223H46.0764C49.7962 29.3223 52.8214 32.3196 52.8214 36.005V53.8715V53.8675Z" fill="#414042"/>
</svg>
