<svg width="40" height="55" viewBox="0 0 40 55" fill="none" xmlns="http://www.w3.org/2000/svg">
<path d="M13.5085 37.9593C13.9179 37.9593 14.3294 38.023 14.7286 38.1523C15.9671 38.5568 16.9272 39.5444 17.2957 40.799C17.7359 42.2958 19.0276 42.8276 20 42.8276C20.9724 42.8276 22.2641 42.2958 22.7043 40.799C23.0728 39.5444 24.0329 38.5568 25.2714 38.1523C26.5099 37.7478 27.8672 37.984 28.8989 38.7806C30.1313 39.7333 31.4886 39.4007 32.2747 38.8278C33.0608 38.255 33.7957 37.0641 33.2737 35.594C32.8376 34.362 33.0342 32.9966 33.7998 31.9392C34.5654 30.8818 35.7998 30.2699 37.1018 30.3089C38.6536 30.3582 39.5604 29.2844 39.8593 28.3563C40.1603 27.4282 40.0559 26.032 38.7723 25.1512C37.6975 24.412 37.0547 23.1924 37.0568 21.8845C37.0568 20.5786 37.6975 19.3569 38.7723 18.6178C40.0559 17.7349 40.1603 16.3387 39.8593 15.4127C39.5584 14.4846 38.6454 13.4149 37.1018 13.46C35.7896 13.4929 34.5654 12.8872 33.7998 11.8298C33.0342 10.7723 32.8376 9.40693 33.2737 8.17498C33.7957 6.70486 33.0608 5.51398 32.2747 4.94112C31.4886 4.36827 30.1313 4.03564 28.8989 4.98835C27.8672 5.78501 26.5099 6.02113 25.2714 5.61664C24.0329 5.21215 23.0728 4.22249 22.7043 2.97001C22.2641 1.4732 20.9724 0.941406 20 0.941406C19.0276 0.941406 17.7359 1.4732 17.2957 2.97001C16.9272 4.22249 15.9671 5.21215 14.7286 5.61664C13.4901 6.02113 12.1328 5.78501 11.1011 4.98835C9.86869 4.0377 8.51144 4.36827 7.72533 4.94112C6.93923 5.51398 6.20431 6.70486 6.72633 8.17498C7.16237 9.40693 6.96584 10.7723 6.20021 11.8298C5.43458 12.8872 4.19606 13.4949 2.89817 13.46C1.35053 13.4169 0.439554 14.4846 0.140671 15.4127C-0.160259 16.3407 -0.0558544 17.7369 1.2277 18.6178C2.30245 19.3569 2.94526 20.5766 2.94526 21.8845C2.94526 23.1924 2.3045 24.412 1.2277 25.1512C-0.0558544 26.0341 -0.160259 27.4282 0.140671 28.3563C0.441601 29.2844 1.35258 30.3521 2.89817 30.3089C4.20425 30.2679 5.43458 30.8818 6.20226 31.9392C6.96789 32.9966 7.16442 34.362 6.72837 35.594C6.20635 37.0641 6.94128 38.255 7.72738 38.8278C8.51348 39.4007 9.87074 39.7333 11.1031 38.7806C11.8032 38.2406 12.6508 37.9593 13.5106 37.9593H13.5085Z" fill="#1B75BB"/>
<path d="M5.45099 54.7274C5.29131 54.7274 5.13573 54.6597 5.02723 54.5365C4.88393 54.3722 4.84503 54.1402 4.93101 53.939L11.271 39.0448C11.3938 38.7573 11.7255 38.6239 12.0121 38.7471C12.2987 38.8702 12.4317 39.2029 12.3089 39.4903L6.43362 53.2922L19.2324 49.621V43.451C19.2324 43.1389 19.4841 42.8843 19.7974 42.8843C20.1106 42.8843 20.3624 43.1369 20.3624 43.451V50.0481C20.3624 50.3007 20.1945 50.5224 19.9529 50.5922L5.60452 54.709C5.55335 54.7233 5.50012 54.7316 5.44894 54.7316L5.45099 54.7274Z" fill="#414042"/>
<path d="M34.1498 54.7276C34.0986 54.7276 34.0454 54.7215 33.9942 54.7051L19.6458 50.5883C19.4042 50.5185 19.2363 50.2967 19.2363 50.0442V43.4471C19.2363 43.135 19.4881 42.8804 19.8013 42.8804C20.1146 42.8804 20.3664 43.133 20.3664 43.4471V49.6171L33.1651 53.2883L27.2898 39.4864C27.167 39.199 27.3 38.8663 27.5866 38.7431C27.8732 38.62 28.2049 38.7534 28.3277 39.0409L34.6677 53.9351C34.7537 54.1363 34.7168 54.3683 34.5715 54.5326C34.463 54.6558 34.3074 54.7235 34.1477 54.7235L34.1498 54.7276Z" fill="#414042"/>
<path d="M20.0982 10.6074L23.5558 17.6377L31.2919 18.765L25.6951 24.2368L27.0155 31.9632L20.0982 28.3146L13.1788 31.9632L14.4992 24.2368L8.90234 18.765L16.6385 17.6377L20.0982 10.6074Z" fill="#FDBC14"/>
<path d="M27.0154 32.5303C26.9253 32.5303 26.8352 32.5098 26.7533 32.4646L20.0981 28.9556L13.4428 32.4646C13.2524 32.5652 13.0231 32.5488 12.8491 32.4215C12.6751 32.2942 12.5891 32.0806 12.6239 31.8671L13.8952 24.4343L8.51123 19.1698C8.3577 19.0199 8.30243 18.7941 8.36793 18.5888C8.43344 18.3834 8.61154 18.2336 8.82445 18.2028L16.2658 17.1186L19.5945 10.3553C19.6907 10.1623 19.8852 10.0391 20.1001 10.0391C20.3151 10.0391 20.5116 10.1623 20.6058 10.3553L23.9344 17.1186L31.3758 18.2028C31.5887 18.2336 31.7647 18.3834 31.8323 18.5888C31.8978 18.7941 31.8425 19.0179 31.689 19.1698L26.305 24.4343L27.5763 31.8671C27.6131 32.0806 27.5251 32.2942 27.3511 32.4215C27.2528 32.4933 27.1361 32.5303 27.0194 32.5303H27.0154ZM10.1162 19.1596L14.8942 23.8307C15.0273 23.96 15.0887 24.1489 15.0559 24.3317L13.928 30.9288L19.834 27.814C19.9978 27.7278 20.1943 27.7278 20.3601 27.814L26.2661 30.9288L25.1381 24.3337C25.1074 24.151 25.1668 23.9621 25.2998 23.8327L30.0779 19.1616L23.4738 18.1987C23.2896 18.172 23.1299 18.057 23.048 17.8886L20.096 11.887L17.144 17.8886C17.0621 18.0549 16.9025 18.172 16.7182 18.1987L10.1141 19.1616L10.1162 19.1596Z" fill="#FDBC14"/>
<path d="M19.9996 37.06C11.6575 37.06 4.86914 30.2515 4.86914 21.8845C4.86914 13.5175 11.6554 6.70898 19.9996 6.70898C28.3437 6.70898 35.13 13.5175 35.13 21.8845C35.13 30.2515 28.3417 37.06 19.9996 37.06ZM19.9996 7.84237C12.2798 7.84237 5.99916 14.1417 5.99916 21.8845C5.99916 29.6273 12.2798 35.9266 19.9996 35.9266C27.7193 35.9266 34 29.6273 34 21.8845C34 14.1417 27.7193 7.84237 19.9996 7.84237Z" fill="white"/>
</svg>
